<svg width="88" height="71" viewBox="0 0 88 71" fill="none" xmlns="http://www.w3.org/2000/svg">
<path d="M43.0775 32.4221H36.4384V21.3032H44.3145C48.5967 21.3032 51.0269 23.2137 51.0269 26.6686C51.0269 30.3579 48.1977 32.4221 43.0702 32.4221H43.0775ZM44.2633 36.8359H36.442V49.0894H44.6073C49.9472 49.0894 52.7763 46.9484 52.7763 42.9224C52.7763 38.8965 49.8667 36.8359 44.2633 36.8359ZM87.8386 32.9711V37.4289C83.7101 37.8241 81.1884 40.8838 79.6915 45.7296C78.2019 50.5571 77.997 56.4788 78.1544 61.0501C78.3191 65.808 74.6115 70.2 69.6011 70.2H18.2448C13.2307 70.2 9.52316 65.808 9.69152 61.0501C9.8489 56.4788 9.64394 50.5571 8.15435 45.7296C6.65377 40.8838 4.12841 37.8241 0 37.4289V32.9711C4.12841 32.5758 6.65743 29.5161 8.15069 24.6703C9.64394 19.8428 9.8489 13.9211 9.68786 9.3498C9.52316 4.59188 13.2307 0.199951 18.2448 0.199951H69.6011C74.6152 0.199951 78.3191 4.59188 78.1544 9.3498C77.997 13.9211 78.2019 19.8428 79.6915 24.6703C81.1884 29.5161 83.7101 32.5758 87.8386 32.9711ZM58.8262 43.2811C58.8262 38.3255 55.3383 34.7425 50.1595 34.1752V33.9666C53.9658 33.348 56.9523 29.8125 56.9523 25.8671C56.9523 20.2418 52.5128 16.5782 45.7456 16.5782H30.5202V53.8071H45.8224C53.9402 53.8071 58.8262 49.8324 58.8262 43.2811Z" fill="#7432FA"/>
</svg>
