<svg width="285" height="342" viewBox="0 0 285 342" fill="none" xmlns="http://www.w3.org/2000/svg">
<path d="M91.7617 341.718C71.2702 332.862 52.0946 310.35 52.0497 287.316C51.9944 262.204 67.9096 240.883 87.7035 226.871C85.3238 235.861 84.0251 244.085 89.9208 252.126C95.402 259.603 105 263.236 114.063 261.264C135.242 256.629 136.212 233.347 123.658 219.784C111.245 206.352 99.2358 191.179 103.961 171.7C106.326 161.936 112.322 152.79 119.917 146.252C114.08 161.594 130.669 176.725 141.6 184.261C160.562 197.338 181.364 207.219 198.799 222.547C217.139 238.656 230.681 260.439 227.946 285.7C224.983 313.082 203.223 332.126 178.819 341.742C230.391 330.358 283.68 290.332 284.772 233.133C285.677 186.078 253.397 149.865 213.409 129.131L211.319 127.992C212.417 130.655 212.777 132.92 212.735 134.948C213.094 133.452 213.336 131.915 213.405 130.33C213.388 132.302 213.136 134.164 212.673 135.911L212.735 134.948C212.134 137.486 211.126 139.845 209.775 142.004L210.362 141.372C202.384 154.603 180.787 157.477 170.119 143.776C152.967 121.737 170.478 97.9746 172.926 74.6371C175.993 45.3867 157.65 16.9928 134.907 0C147.434 20.2636 130.931 47.0721 117.728 62.0583C104.924 76.5885 89.3544 88.7183 75.2213 101.919C60.0383 116.097 45.4425 131.031 32.9638 147.672C8.00651 180.977 -7.27319 222.865 3.95518 264.418C15.1766 305.94 51.1448 332.372 91.7617 341.718Z" fill="#EE4323"/>
</svg>
