<svg width="48" height="70" viewBox="0 0 48 70" fill="none" xmlns="http://www.w3.org/2000/svg">
<path d="M23.5867 33.7319C23.5871 30.9739 24.6837 28.3291 26.6353 26.379C28.5869 24.429 31.2336 23.3335 33.9934 23.3335H35.4987C37.0426 23.3164 38.5746 23.6055 40.0059 24.1842C41.4373 24.7628 42.7395 25.6194 43.8373 26.7044C44.9351 27.7894 45.8067 29.0813 46.4015 30.5052C46.9963 31.9291 47.3026 33.4568 47.3026 34.9998C47.3026 36.5428 46.9963 38.0704 46.4015 39.4943C45.8067 40.9182 44.9351 42.2101 43.8373 43.2951C42.7395 44.3801 41.4373 45.2367 40.0059 45.8153C38.5746 46.394 37.0426 46.6831 35.4987 46.666H33.9934C31.2339 46.6657 28.5875 45.57 26.6362 43.62C24.6849 41.67 23.5885 39.0253 23.5881 36.2676L23.5867 33.7319Z" fill="#00B6FF"/>
<path d="M0 58.3344C0 55.2401 1.23001 52.2726 3.41944 50.0846C5.60887 47.8966 8.57838 46.6674 11.6747 46.6674H23.5867V58.2144C23.5867 64.7243 18.2475 70 11.7333 70C5.28628 70 0 64.7772 0 58.3344Z" fill="#24CB71"/>
<path d="M23.5867 0.000714335V23.3333L35.4987 23.3335C37.0426 23.3505 38.5746 23.0612 40.0059 22.4826C41.4373 21.904 42.7395 21.0474 43.8373 19.9624C44.9351 18.8773 45.8067 17.5855 46.4015 16.1616C46.9963 14.7377 47.3026 13.21 47.3026 11.667C47.3026 10.124 46.9963 8.59634 46.4015 7.17244C45.8067 5.74853 44.9351 4.45668 43.8373 3.37167C42.7395 2.28666 41.4373 1.43004 40.0059 0.851416C38.5746 0.272788 37.0426 -0.0163593 35.4987 0.000714335H23.5867Z" fill="#FF7237"/>
<path d="M0 11.6664C0 14.7606 1.23001 17.7282 3.41944 19.9162C5.60887 22.1042 8.57838 23.3334 11.6747 23.3334L23.5867 23.3333V0.000714335L11.6747 0.000767796C8.57862 0.000767773 5.60934 1.22977 3.41995 3.41745C1.23056 5.60513 0.000379096 8.57232 0 11.6664Z" fill="#FF3737"/>
<path d="M0 35.0004C0 38.0947 1.23001 41.0623 3.41944 43.2503C5.60887 45.4383 8.57838 46.6674 11.6747 46.6674H23.5867V23.3333L11.6747 23.3334C8.57862 23.3334 5.60934 24.5639 3.41995 26.7515C1.23056 28.9392 0.000379096 31.9064 0 35.0004Z" fill="#874FFF"/>
</svg>
