<svg width="31" height="30" viewBox="0 0 31 30" fill="none" xmlns="http://www.w3.org/2000/svg">
<path fill-rule="evenodd" clip-rule="evenodd" d="M30.8 30H24.8V19.5015C24.8 16.6215 23.5295 15.0146 21.251 15.0146C18.7715 15.0146 17.3 16.689 17.3 19.5015V30H11.3V10.5H17.3V12.6929C17.3 12.6929 19.1825 9.38965 23.4245 9.38965C27.668 9.38965 30.8 11.9792 30.8 17.3372V30ZM4.46302 7.38135C2.43952 7.38135 0.800018 5.72844 0.800018 3.68994C0.800018 1.65294 2.43952 0 4.46302 0C6.48502 0 8.12451 1.65294 8.12451 3.68994C8.12601 5.72844 6.48502 7.38135 4.46302 7.38135ZM0.800018 30H8.30002V10.5H0.800018V30Z" fill="#075985"/>
</svg>
