<svg width="40" height="30" viewBox="0 0 40 30" fill="none" xmlns="http://www.w3.org/2000/svg">
<path d="M39.8 18.0547L34.6891 12.7056L39.8 8.26685V18.0547Z" fill="#075985"/>
<path d="M5.31708 12.7056L0.200012 18.061V8.26685L5.31708 12.7056Z" fill="#075985"/>
<path d="M39.8 22.9176V27.8427C39.8 29.0336 38.841 30 37.6591 30H2.34089C1.159 30 0.200012 29.0336 0.200012 27.8427V22.9176L7.85387 14.9126L16.5969 22.4998C17.5064 23.2855 18.7129 23.7219 20 23.7219C21.2871 23.7219 22.4998 23.2855 23.4093 22.4998L32.146 14.9126L39.8 22.9176Z" fill="#075985"/>
<path d="M39.8 2.15086V4.30796L21.126 20.5174C20.5258 21.041 19.474 21.041 18.8738 20.5174L0.200012 4.30796V2.15086C0.200012 0.960173 1.15892 0 2.34089 0H37.6591C38.841 0 39.8 0.960173 39.8 2.15086Z" fill="#075985"/>
</svg>
