<svg width="150" height="100" viewBox="0 0 150 100" fill="none" xmlns="http://www.w3.org/2000/svg">
<path d="M84 100H139.5C141.271 100 142.966 99.378 144.5 98.5C146.034 97.622 147.615 96.5205 148.5 95C149.385 93.4795 150.001 91.755 150 89.9995C149.999 88.244 149.387 86.52 148.5 85.0005L111 20.5C110.115 18.98 109.033 17.8776 107.5 17C105.967 16.1224 103.771 15.5 102 15.5C100.229 15.5 98.5335 16.1224 97 17C95.4665 17.8776 94.385 18.98 93.5 20.5L84 37L65 4.99882C64.114 3.47892 63.034 1.87745 61.5 1C59.966 0.122544 58.271 0 56.5 0C54.729 0 53.034 0.122544 51.5 1C49.9662 1.87745 48.3859 3.47892 47.5 4.99882L1 85.0005C0.113492 86.52 0.000774409 88.244 3.80402e-06 89.9995C-0.000766801 91.755 0.114827 93.4795 1 95C1.88518 96.52 3.46623 97.622 5 98.5C6.53375 99.378 8.2289 100 10 100H45C58.8685 100 68.9625 93.779 76 82L93 52.5L102 37L129.5 84H93L84 100ZM44.5 84H20L56.5 21L75 52.5L62.7455 73.8625C58.072 81.505 52.744 84 44.5 84Z" fill="#00DC82"/>
</svg>
