<svg width="31" height="30" viewBox="0 0 31 30" fill="none" xmlns="http://www.w3.org/2000/svg">
<path fill-rule="evenodd" clip-rule="evenodd" d="M15.614 0C7.39853 0 0.800018 6.65197 0.800018 14.9377C0.800018 21.0878 4.41053 26.2341 9.63953 28.6194C9.63953 25.8181 9.62001 26.1792 11.7545 17.0706C10.5815 14.7034 11.4935 10.7952 14.12 10.7952C17.765 10.7952 15.2885 16.1993 14.867 18.3259C14.4935 19.958 15.7385 21.2139 17.2325 21.2139C20.096 21.2139 21.962 17.5728 21.962 13.3059C21.962 10.0418 19.7225 7.65674 15.863 7.65674C9.00053 7.65674 7.26053 15.2993 9.63953 17.6982C10.238 18.6043 9.63953 18.6467 9.63953 19.8325C9.22403 21.0864 5.90452 19.2638 5.90452 14.5613C5.90452 10.2928 9.39052 5.27271 16.4855 5.27271C22.0865 5.27271 25.8215 9.41438 25.8215 13.8083C25.8215 19.7073 22.5845 23.9758 17.855 23.9758C16.2365 23.9758 14.7425 23.0964 14.2445 22.092C13.34 25.6102 13.157 27.3939 11.7545 29.3723C13.124 29.7489 14.4935 30 15.9875 30C24.203 30 30.8 23.348 30.8 15.0637C30.428 6.65241 23.8295 0 15.614 0Z" fill="#075985"/>
</svg>
