<svg width="130" height="79" viewBox="0 0 130 79" fill="none" xmlns="http://www.w3.org/2000/svg">
<path d="M32.5 26.5C36.8333 9.16666 47.6667 0.5 65 0.5C91 0.5 94.25 20 107.25 23.25C115.917 25.4167 123.5 22.1667 130 13.5C125.667 30.8333 114.833 39.5 97.5 39.5C71.5 39.5 68.25 20 55.25 16.75C46.5833 14.5833 39 17.8333 32.5 26.5ZM0 65.5C4.33333 48.1667 15.1667 39.5 32.5 39.5C58.5 39.5 61.75 59 74.75 62.25C83.4167 64.4167 91 61.1667 97.5 52.5C93.1667 69.8333 82.3333 78.5 65 78.5C39 78.5 35.75 59 22.75 55.75C14.0833 53.5833 6.5 56.8333 0 65.5Z" fill="#075985"/>
</svg>
