<svg width="31" height="30" viewBox="0 0 31 30" fill="none" xmlns="http://www.w3.org/2000/svg">
<path d="M19.946 12.6899C20.028 13.4938 20.075 14.2718 20.075 14.9999C20.075 16.3629 19.9103 17.9021 19.6583 19.4582C18.1022 19.7102 16.563 19.8749 15.2 19.8749C13.8432 19.8749 12.3045 19.7107 10.7416 19.4578C10.4897 17.9017 10.325 16.3628 10.325 14.9999C10.325 14.2721 10.372 13.4939 10.4541 12.6899C12.0944 12.9525 13.7307 13.1249 15.2 13.1249C16.6694 13.1249 18.3057 12.9525 19.946 12.6899Z" fill="#075985"/>
<path d="M22.1646 12.2849C22.266 13.2257 22.325 14.1415 22.325 15.0001C22.325 16.2528 22.1996 17.6271 21.9998 19.0219C24.8321 18.4309 27.45 17.6759 28.8524 17.2461C29.3056 17.1072 29.4837 17.0519 29.7226 16.9564C29.842 16.9087 29.9514 16.8601 30.0941 16.7919C30.164 16.2044 30.2 15.6064 30.2 15.0001C30.2 13.3972 29.9486 11.8531 29.4831 10.405L29.3618 10.4432C27.8954 10.8893 25.1503 11.6779 22.1646 12.2849Z" fill="#075985"/>
<path d="M28.631 8.31351C27.1569 8.76027 24.5986 9.48624 21.857 10.0514C21.2254 6.2132 20.1186 2.38498 19.586 0.651367C23.546 1.86035 26.8104 4.66378 28.631 8.31351Z" fill="#075985"/>
<path d="M19.6453 10.4604C18.0933 10.7112 16.559 10.875 15.2 10.875C13.841 10.875 12.3068 10.7112 10.7549 10.4604C11.3496 6.82864 12.4112 3.11866 12.954 1.34761C13.0929 0.894372 13.1482 0.716343 13.2437 0.4774C13.2914 0.358029 13.34 0.248543 13.4082 0.105914C13.9957 0.0359714 14.5937 0 15.2 0C15.8334 0 16.4576 0.0392571 17.0704 0.115471C17.0834 0.1652 17.0954 0.2097 17.1073 0.2518C17.1424 0.376186 17.1974 0.551 17.2897 0.844343L17.2994 0.875157C17.7622 2.34604 18.9884 6.44859 19.6453 10.4604Z" fill="#075985"/>
<path d="M8.54295 10.0514C9.17161 6.23008 10.2713 2.4225 10.8028 0.688281L10.8141 0.651367C6.85399 1.86034 3.5896 4.66377 1.7691 8.3135C3.24315 8.76025 5.80139 9.48621 8.54295 10.0514Z" fill="#075985"/>
<path d="M0.916927 10.405C0.451412 11.8532 0.200012 13.3972 0.200012 15.0001C0.200012 15.6271 0.238484 16.2451 0.313198 16.852L0.549598 16.9308L0.551484 16.9314L0.553798 16.9322L0.555427 16.9327C0.631512 16.958 2.86151 17.6944 5.79827 18.4251C6.62696 18.6312 7.5044 18.835 8.4001 19.0217C8.20037 17.627 8.07501 16.2528 8.07501 15.0001C8.07501 14.1412 8.13393 13.2254 8.23533 12.285C5.24898 11.6778 2.50313 10.8888 1.03711 10.4428L1.02691 10.4397L0.916927 10.405Z" fill="#075985"/>
<path d="M15.2 22.1249C16.4527 22.1249 17.827 21.9995 19.2219 21.7998C18.6309 24.6321 17.8759 27.25 17.446 28.6522C17.3072 29.1055 17.2519 29.2835 17.1563 29.5225C17.1086 29.6419 17.06 29.7514 16.9919 29.8941C16.4043 29.9639 15.8063 29.9999 15.2 29.9999C14.5937 29.9999 13.9957 29.9639 13.4082 29.8941C13.34 29.7514 13.2914 29.6419 13.2437 29.5225C13.1482 29.2837 13.0929 29.1055 12.954 28.6524C12.5242 27.2501 11.7692 24.6324 11.1783 21.8004C12.5684 21.9994 13.943 22.1249 15.2 22.1249Z" fill="#075985"/>
<path d="M5.25502 20.6084C3.39792 20.1463 1.81624 19.6821 0.85141 19.386C2.30371 24.1431 6.05691 27.8963 10.8141 29.3486L10.8028 29.3117C10.3387 27.7974 9.44141 24.7024 8.80275 21.3977C7.56074 21.1576 6.3532 20.8816 5.25502 20.6084Z" fill="#075985"/>
<path d="M29.5117 19.3973C27.9974 19.8614 24.9022 20.7587 21.5973 21.3973C20.9587 24.7021 20.0614 27.7973 19.5973 29.3117L19.586 29.3486C24.3432 27.8963 28.0963 24.1431 29.5486 19.386L29.5117 19.3973Z" fill="#075985"/>
<path d="M0.35759 16.8901C0.409518 16.8969 0.451847 16.904 0.46589 16.9071C0.47819 16.9101 0.497461 16.9153 0.504447 16.9171L0.51989 16.9216L0.528204 16.9241L0.536947 16.9269L0.544276 16.9291C0.540161 16.9279 0.456818 16.907 0.35759 16.8901Z" fill="#075985"/>
</svg>
