<svg width="31" height="30" viewBox="0 0 31 30" fill="none" xmlns="http://www.w3.org/2000/svg">
<path fill-rule="evenodd" clip-rule="evenodd" d="M24.5315 21.1816C24.17 22.2049 22.733 23.0515 21.587 23.2991C20.8025 23.4656 19.7795 23.5974 16.3325 22.1689C12.461 20.565 7.08502 14.8515 7.08502 11.0493C7.08502 9.11373 8.20102 6.85986 10.1525 6.85986C11.0915 6.85986 11.2985 6.87818 11.6075 7.61939C11.969 8.49265 12.851 10.6442 12.956 10.8647C13.3895 11.7695 12.515 12.2992 11.8805 13.0869C11.678 13.324 11.4485 13.5804 11.705 14.0215C11.96 14.4536 12.842 15.8911 14.138 17.0449C15.812 18.5364 17.1695 19.0125 17.6555 19.2151C18.017 19.3651 18.449 19.3302 18.713 19.0481C19.0475 18.6865 19.463 18.0865 19.886 17.4954C20.1845 17.0722 20.564 17.0194 20.9615 17.1694C21.23 17.2625 24.6425 18.8473 24.7865 19.1008C24.893 19.2854 24.893 20.1583 24.5315 21.1816ZM15.803 0H15.7955C7.52601 0 0.800018 6.72803 0.800018 15C0.800018 18.28 1.85753 21.323 3.65603 23.7913L1.78703 29.365L7.55153 27.523C9.92303 29.0924 12.7535 30 15.803 30C24.0725 30 30.8 23.272 30.8 15C30.8 6.72803 24.0725 0 15.803 0Z" fill="#075985"/>
</svg>
