<svg width="127" height="50" viewBox="0 0 127 50" fill="none" xmlns="http://www.w3.org/2000/svg">
<path d="M75.6542 13.2888C72.458 10.0991 68.6634 7.56871 64.4875 5.84243C60.3114 4.11615 55.8356 3.22766 51.3155 3.22766C46.7953 3.22766 42.3196 4.11615 38.1435 5.84243C33.9675 7.56871 30.173 10.0991 26.9768 13.2888L51.3155 37.5784L75.6542 13.2888Z" fill="#1F84EF"/>
<path d="M51.346 37.6134C54.5422 40.8031 58.3366 43.3334 62.5127 45.0597C66.6887 46.7859 71.1645 47.6744 75.6847 47.6744C80.2046 47.6744 84.6811 46.7859 88.8569 45.0597C93.0328 43.3334 96.8276 40.8031 100.024 37.6134L75.6847 13.3237L51.346 37.6134Z" fill="#06E07F"/>
<path d="M51.2859 37.608C48.0897 40.7978 44.2952 43.328 40.1192 45.0543C35.9431 46.7806 31.4673 47.6691 26.9472 47.6691C22.427 47.6691 17.9513 46.7806 13.7752 45.0543C9.59923 43.328 5.80473 40.7978 2.60852 37.608L26.9472 13.3184L51.2859 37.608Z" fill="#06E07F"/>
<path d="M75.7142 13.2942C78.9101 10.1044 82.7049 7.5742 86.8808 5.84792C91.0566 4.12164 95.5331 3.23315 100.053 3.23315C104.573 3.23315 109.049 4.12164 113.225 5.84792C117.4 7.5742 121.195 10.1044 124.391 13.2942L100.053 37.5839L75.7142 13.2942Z" fill="#1F84EF"/>
</svg>
