<svg width="106" height="70" viewBox="0 0 106 70" fill="none" xmlns="http://www.w3.org/2000/svg">
<path d="M59.1026 70H97.9526C99.1923 70 100.379 69.5646 101.453 68.95C102.526 68.3354 103.633 67.5643 104.253 66.5C104.872 65.4356 105.303 64.2285 105.303 62.9996C105.302 61.7708 104.873 60.564 104.253 59.5004L78.0025 14.35C77.383 13.286 76.626 12.5143 75.5526 11.9C74.4791 11.2857 72.9423 10.85 71.7026 10.85C70.4629 10.85 69.276 11.2857 68.2026 11.9C67.1291 12.5143 66.372 13.286 65.7525 14.35L59.1026 25.9L45.8026 3.49917C45.1824 2.43524 44.4264 1.31422 43.3526 0.7C42.2788 0.0857805 41.0923 0 39.8526 0C38.6129 0 37.4264 0.0857805 36.3526 0.7C35.2789 1.31422 34.1726 2.43524 33.5526 3.49917L1.00255 59.5004C0.381996 60.564 0.303093 61.7708 0.302554 62.9996C0.302015 64.2285 0.38293 65.4356 1.00255 66.5C1.62218 67.564 2.72891 68.3354 3.80255 68.95C4.87618 69.5646 6.06278 70 7.30255 70H31.8026C41.5105 70 48.5763 65.6453 53.5026 57.4L65.4025 36.75L71.7026 25.9L90.9526 58.8H65.4025L59.1026 70ZM31.4526 58.8H14.3026L39.8526 14.7L52.8026 36.75L44.2244 51.7038C40.953 57.0535 37.2234 58.8 31.4526 58.8Z" fill="#00DC82"/>
</svg>
